<svg xmlns="http://www.w3.org/2000/svg" width="195" height="26" viewBox="0 0 195 26" fill="none">
  <path d="M7.74248 26.0001C6.30553 26.0001 5.00094 25.6597 3.8287 24.9791C2.65645 24.2795 1.72055 23.3342 1.02099 22.143C0.340329 20.933 0 19.5622 0 18.0307C0 16.5181 0.340329 15.1663 1.02099 13.9751C1.70164 12.784 2.61864 11.8481 3.77198 11.1674C4.94422 10.4678 6.26772 10.1181 7.74248 10.1181C9.21724 10.1181 10.5313 10.4584 11.6846 11.1391C12.8569 11.8197 13.7739 12.7556 14.4356 13.9468C15.1163 15.1379 15.4566 16.4992 15.4566 18.0307C15.4566 19.5811 15.1068 20.9613 14.4072 22.1714C13.7077 23.3625 12.7718 24.2984 11.5995 24.9791C10.4462 25.6597 9.16051 26.0001 7.74248 26.0001ZM7.74248 23.873C8.76346 23.873 9.68046 23.6178 10.4935 23.1073C11.3254 22.5968 11.9777 21.8972 12.4504 21.0086C12.9419 20.1199 13.1877 19.1273 13.1877 18.0307C13.1877 16.9341 12.9419 15.9509 12.4504 15.0812C11.9777 14.2115 11.3254 13.5214 10.4935 13.0109C9.68046 12.5004 8.76346 12.2451 7.74248 12.2451C6.72149 12.2451 5.79504 12.5004 4.96313 13.0109C4.15012 13.5214 3.49782 14.2115 3.00624 15.0812C2.51465 15.9509 2.26886 16.9341 2.26886 18.0307C2.26886 19.1273 2.51465 20.1199 3.00624 21.0086C3.49782 21.8972 4.15012 22.5968 4.96313 23.1073C5.79504 23.6178 6.72149 23.873 7.74248 23.873Z" fill="black"/>
  <path d="M20.2139 25.6597V12.5854H17.1793V10.4584H20.2139V9.09708C20.2139 8.03828 20.4502 7.14964 20.9229 6.43117C21.3956 5.69379 22.0195 5.13603 22.7947 4.75789C23.5699 4.37975 24.4018 4.19067 25.2905 4.19067C25.4795 4.19067 25.697 4.20958 25.9428 4.24739C26.1885 4.2663 26.3871 4.29466 26.5383 4.33248V6.26101C26.406 6.22319 26.2264 6.20428 25.9995 6.20428C25.7726 6.18538 25.6119 6.17592 25.5173 6.17592C24.6098 6.17592 23.8535 6.39336 23.2485 6.82822C22.6435 7.26309 22.3409 8.01937 22.3409 9.09708V10.4584H30.8775V12.5854H22.3409V25.6597H20.2139ZM31.076 25.6597V12.5854H28.0414V10.4584H31.076V9.09708C31.076 8.03828 31.3124 7.14964 31.7851 6.43117C32.2577 5.69379 32.8817 5.13603 33.6569 4.75789C34.4321 4.37975 35.264 4.19067 36.1526 4.19067C36.3417 4.19067 36.5591 4.20958 36.8049 4.24739C37.0507 4.2663 37.2492 4.29466 37.4005 4.33248V6.26101C37.2681 6.22319 37.0885 6.20428 36.8616 6.20428C36.6347 6.18538 36.474 6.17592 36.3795 6.17592C35.472 6.17592 34.7157 6.39336 34.1106 6.82822C33.5056 7.26309 33.2031 8.01937 33.2031 9.09708V10.4584H36.9184V12.5854H33.2031V25.6597H31.076Z" fill="black"/>
  <path d="M40.3954 25.6597V10.4584H42.5225V13.3512L42.1821 12.9258C42.5981 12.0371 43.2126 11.347 44.0256 10.8554C44.8575 10.3639 45.765 10.1181 46.7482 10.1181C47.9205 10.1181 48.9793 10.4489 49.9246 11.1107C50.87 11.7724 51.5412 12.6327 51.9382 13.6915L51.3427 13.7199C51.7208 12.5476 52.3731 11.659 53.2995 11.054C54.2449 10.43 55.2848 10.1181 56.4192 10.1181C57.4402 10.1181 58.3761 10.3639 59.2269 10.8554C60.0967 11.347 60.7868 12.0277 61.2973 12.8974C61.8267 13.7482 62.0914 14.7125 62.0914 15.7902V25.6597H59.9643V16.6127C59.9643 15.6862 59.7942 14.9016 59.4538 14.2587C59.1324 13.6159 58.6881 13.1243 58.1209 12.784C57.5537 12.4247 56.9014 12.2451 56.164 12.2451C55.4455 12.2451 54.7932 12.4247 54.2071 12.784C53.621 13.1243 53.1577 13.6253 52.8174 14.2871C52.4771 14.9299 52.3069 15.7051 52.3069 16.6127V25.6597H50.1799V16.6127C50.1799 15.6862 50.0097 14.9016 49.6694 14.2587C49.348 13.6159 48.9036 13.1243 48.3364 12.784C47.7692 12.4247 47.1169 12.2451 46.3795 12.2451C45.6422 12.2451 44.9804 12.4247 44.3943 12.784C43.8271 13.1243 43.3733 13.6253 43.033 14.2871C42.6926 14.9299 42.5225 15.7051 42.5225 16.6127V25.6597H40.3954Z" fill="black"/>
  <path d="M70.5486 26.0001C69.5844 26.0001 68.7241 25.8205 67.9678 25.4612C67.2115 25.0831 66.6159 24.5726 66.1811 23.9297C65.7462 23.2869 65.5288 22.5495 65.5288 21.7176C65.5288 20.9235 65.6989 20.205 66.0393 19.5622C66.3796 18.9004 66.909 18.3427 67.6275 17.8889C68.3459 17.4351 69.2629 17.1137 70.3785 16.9246L76.3342 15.932V17.8605L70.889 18.7681C69.7924 18.9572 68.9982 19.3069 68.5067 19.8174C68.034 20.3279 67.7976 20.933 67.7976 21.6325C67.7976 22.3132 68.0623 22.8898 68.5917 23.3625C69.1401 23.8352 69.8396 24.0715 70.6904 24.0715C71.7303 24.0715 72.6379 23.8541 73.4131 23.4192C74.1883 22.9655 74.7933 22.3604 75.2281 21.6042C75.663 20.8479 75.8804 20.0065 75.8804 19.0801V15.223C75.8804 14.3155 75.5496 13.5781 74.8878 13.0109C74.2261 12.4436 73.3658 12.16 72.307 12.16C71.3805 12.16 70.5675 12.3964 69.868 12.8691C69.1684 13.3228 68.6485 13.9184 68.3081 14.6558L66.3796 13.6064C66.6632 12.9636 67.1075 12.3775 67.7126 11.8481C68.3365 11.3187 69.0455 10.9027 69.8396 10.6002C70.6337 10.2788 71.4562 10.1181 72.307 10.1181C73.4225 10.1181 74.4057 10.3355 75.2565 10.7704C76.1262 11.2052 76.7974 11.8103 77.2701 12.5854C77.7617 13.3417 78.0075 14.2209 78.0075 15.223V25.6597H75.8804V22.6251L76.1924 22.9371C75.9277 23.5043 75.5118 24.0243 74.9445 24.497C74.3962 24.9507 73.7439 25.3194 72.9877 25.603C72.2503 25.8677 71.4373 26.0001 70.5486 26.0001Z" fill="black"/>
  <path d="M82.3826 25.6597V10.4584H84.5096V12.9541L84.226 12.5854C84.5853 11.867 85.1241 11.2998 85.8426 10.8838C86.58 10.4678 87.4686 10.2599 88.5085 10.2599H89.4728V12.3869H88.1398C87.0432 12.3869 86.164 12.7273 85.5023 13.4079C84.8405 14.0886 84.5096 15.0528 84.5096 16.3007V25.6597H82.3826Z" fill="black"/>
  <path d="M91.9654 25.6597V4.19067H94.0925V19.2219L93.1849 19.0801L101.721 10.4584H104.472L98.5167 16.5559L105.011 25.6597H102.459L96.3613 17.2366L97.7226 17.35L93.3834 21.831L94.0925 20.0727V25.6597H91.9654Z" fill="black"/>
  <path d="M114.146 26.0001C112.728 26.0001 111.442 25.6597 110.289 24.9791C109.154 24.2795 108.256 23.3247 107.595 22.1146C106.933 20.9046 106.602 19.5338 106.602 18.0023C106.602 16.4709 106.923 15.119 107.566 13.9468C108.209 12.7556 109.079 11.8197 110.175 11.1391C111.291 10.4584 112.539 10.1181 113.919 10.1181C115.016 10.1181 115.989 10.326 116.84 10.742C117.71 11.1391 118.447 11.6874 119.052 12.3869C119.657 13.0676 120.121 13.8428 120.442 14.7125C120.763 15.5633 120.924 16.4425 120.924 17.35C120.924 17.5391 120.915 17.7566 120.896 18.0023C120.877 18.2292 120.849 18.4656 120.811 18.7114H107.963V16.7261H119.591L118.57 17.5769C118.74 16.537 118.617 15.6106 118.202 14.7976C117.804 13.9657 117.228 13.3134 116.472 12.8407C115.715 12.3491 114.864 12.1033 113.919 12.1033C112.974 12.1033 112.095 12.3491 111.282 12.8407C110.487 13.3323 109.863 14.0224 109.41 14.911C108.956 15.7808 108.776 16.8207 108.871 18.0307C108.776 19.2408 108.965 20.2996 109.438 21.2071C109.93 22.0957 110.591 22.7859 111.423 23.2774C112.274 23.769 113.182 24.0148 114.146 24.0148C115.261 24.0148 116.197 23.7501 116.954 23.2207C117.71 22.6913 118.324 22.0296 118.797 21.2355L120.612 22.1997C120.31 22.8804 119.846 23.5138 119.223 24.0999C118.599 24.6671 117.852 25.1303 116.982 25.4896C116.131 25.8299 115.186 26.0001 114.146 26.0001Z" fill="black"/>
  <path d="M130.488 25.8299C129.127 25.8299 128.078 25.4329 127.34 24.6388C126.603 23.8447 126.234 22.7102 126.234 21.2355V12.5854H123.427V10.4584H124.136C124.778 10.4584 125.289 10.2504 125.667 9.83446C126.045 9.39959 126.234 8.86074 126.234 8.2179V6.94166H128.361V10.4584H131.708V12.5854H128.361V21.2355C128.361 21.746 128.437 22.1997 128.588 22.5968C128.739 22.9749 128.995 23.2774 129.354 23.5043C129.732 23.7312 130.233 23.8447 130.857 23.8447C131.008 23.8447 131.188 23.8352 131.396 23.8163C131.604 23.7974 131.783 23.7785 131.935 23.7596V25.6597C131.708 25.7165 131.453 25.7543 131.169 25.7732C130.885 25.811 130.659 25.8299 130.488 25.8299Z" fill="black"/>
  <path d="M134.677 25.6597V22.2565L140.349 16.4141C141.465 15.2608 142.306 14.3533 142.873 13.6915C143.459 13.0109 143.857 12.4436 144.065 11.9899C144.291 11.5361 144.405 11.0918 144.405 10.6569C144.405 9.88172 144.15 9.2767 143.639 8.84183C143.147 8.38806 142.524 8.16117 141.767 8.16117C140.992 8.16117 140.302 8.38806 139.697 8.84183C139.092 9.2767 138.648 9.9479 138.364 10.8554L134.535 9.60757C134.762 8.51096 135.235 7.55615 135.953 6.74314C136.672 5.93013 137.542 5.3062 138.563 4.87133C139.583 4.41756 140.652 4.19067 141.767 4.19067C143.166 4.19067 144.395 4.43647 145.454 4.92805C146.513 5.41964 147.335 6.10975 147.922 6.99838C148.508 7.88702 148.801 8.92692 148.801 10.1181C148.801 10.8744 148.668 11.6212 148.404 12.3586C148.139 13.077 147.732 13.8144 147.184 14.5707C146.655 15.3081 145.965 16.1116 145.114 16.9814L140.264 21.9728H148.999V25.6597H134.677Z" fill="black"/>
  <path d="M160.37 25.6597V21.122H151.011V17.4351L160.087 4.531H164.766V17.4351H168.028V21.122H164.766V25.6597H160.37ZM154.216 19.0233L153.393 17.4351H160.37V7.93429L161.476 8.27462L154.216 19.0233Z" fill="black"/>
  <path d="M184.574 0.152638L194.179 9.75749L189.081 14.8556L179.476 5.25079L184.574 0.152638Z" fill="url(#paint0_linear_153_829)"/>
  <path d="M174.682 9.74554L184.427 0L189.525 5.09815L179.78 14.8437L174.682 9.74554Z" fill="url(#paint1_linear_153_829)"/>
  <defs>
    <linearGradient id="paint0_linear_153_829" x1="174.682" y1="0" x2="195.343" y2="1.84887" gradientUnits="userSpaceOnUse">
      <stop stop-color="#EE294E"/>
      <stop offset="1" stop-color="#FF1BA5"/>
    </linearGradient>
    <linearGradient id="paint1_linear_153_829" x1="174.682" y1="0" x2="195.343" y2="1.84887" gradientUnits="userSpaceOnUse">
      <stop stop-color="#EE294E"/>
      <stop offset="1" stop-color="#FF1BA5"/>
    </linearGradient>
  </defs>
</svg>